HIERARCHY
ROOT Pelvis
{
	OFFSET 0.000000 0.941512 0.000000
	CHANNELS 6 Xposition Yposition Zposition Zrotation Yrotation Xrotation 
	JOINT Pelvis_L_Hip
	{
		OFFSET 0.000000 0.000000 0.000000
		CHANNELS 3 Zrotation Yrotation Xrotation
		JOINT L_Hip
		{
			OFFSET 0.062321 -0.080322 -0.016990
			CHANNELS 3 Zrotation Yrotation Xrotation
			JOINT L_Knee
			{
				OFFSET 0.093051 -0.381305 -0.029784
				CHANNELS 3 Zrotation Yrotation Xrotation
				JOINT L_Ankle
				{
					OFFSET -0.010371 -0.431000 -0.033614
					CHANNELS 3 Zrotation Yrotation Xrotation
					End Site #name: L_Foot
					{
						OFFSET 0.069299 -0.038670 0.119418
					}
				}
			}
		}
	}
	JOINT Pelvis_R_Hip
	{
		OFFSET 0.000000 0.000000 0.000000
		CHANNELS 3 Zrotation Yrotation Xrotation
		JOINT R_Hip
		{
			OFFSET -0.055334 -0.094904 -0.002373
			CHANNELS 3 Zrotation Yrotation Xrotation
			JOINT R_Knee
			{
				OFFSET -0.064207 -0.384370 -0.019592
				CHANNELS 3 Zrotation Yrotation Xrotation
				JOINT R_Ankle
				{
					OFFSET 0.025418 -0.419734 -0.065953
					CHANNELS 3 Zrotation Yrotation Xrotation
					End Site #name: R_Foot
					{
						OFFSET -0.057233 -0.039888 0.132134
					}
				}
			}
		}
	}
	JOINT Pelvis_Spine1
	{
		OFFSET 0.000000 0.000000 0.000000
		CHANNELS 3 Zrotation Yrotation Xrotation
		JOINT Spine1
		{
			OFFSET -0.005562 0.124093 -0.043360
			CHANNELS 3 Zrotation Yrotation Xrotation
			JOINT Spine2
			{
				OFFSET 0.012244 0.139499 0.029894
				CHANNELS 3 Zrotation Yrotation Xrotation
				JOINT Spine3
				{
					OFFSET -0.002556 0.056561 0.009225
					CHANNELS 3 Zrotation Yrotation Xrotation
					JOINT Spine3_Neck
					{
						OFFSET 0.000000 0.000000 0.000000
						CHANNELS 3 Zrotation Yrotation Xrotation
						JOINT Neck
						{
							OFFSET -0.005205 0.217920 -0.024551
							CHANNELS 3 Zrotation Yrotation Xrotation
							End Site #name: Head
							{
								OFFSET 0.002365 0.091850 0.046637
							}
						}
					}
					JOINT Spine3_L_Collar
					{
						OFFSET 0.000000 0.000000 0.000000
						CHANNELS 3 Zrotation Yrotation Xrotation
						JOINT L_Collar
						{
							OFFSET 0.072225 0.116603 -0.009480
							CHANNELS 3 Zrotation Yrotation Xrotation
							JOINT L_Shoulder
							{
								OFFSET 0.115937 -0.058643 -0.021018
								CHANNELS 3 Zrotation Yrotation Xrotation
								JOINT L_Elbow
								{
									OFFSET 0.021994 -0.254722 -0.024492
									CHANNELS 3 Zrotation Yrotation Xrotation
									End Site #name: L_Wrist
									{
										OFFSET 0.048810 -0.240214 0.103329
									}
								}
							}
						}
					}
					JOINT Spine3_R_Collar
					{
						OFFSET 0.000000 0.000000 0.000000
						CHANNELS 3 Zrotation Yrotation Xrotation
						JOINT R_Collar
						{
							OFFSET -0.073372 0.120704 -0.024611
							CHANNELS 3 Zrotation Yrotation Xrotation
							JOINT R_Shoulder
							{
								OFFSET -0.108089 -0.054969 -0.020504
								CHANNELS 3 Zrotation Yrotation Xrotation
								JOINT R_Elbow
								{
									OFFSET -0.033684 -0.260739 0.009889
									CHANNELS 3 Zrotation Yrotation Xrotation
									End Site #name: R_Wrist
									{
										OFFSET -0.067980 -0.232763 0.118463
									}
								}
							}
						}
					}
				}
			}
		}
	}
}
MOTION
Frames: 17
Frame Time: 0.041667
0.021667 0.965180 -0.009849 -7.607687 -5.924571 3.073230 0.000000 0.000000 0.000000 4.118282 -0.431749 -0.588838 3.440667 -0.270561 -0.331528 -4.608784 -3.493127 6.072144 0.000000 0.000000 0.000000 4.388704 0.061558 -1.592798 -1.089344 0.096163 -0.950498 5.879083 -1.156044 13.160382 0.000000 0.000000 0.000000 2.295858 -0.646089 1.276956 -1.234803 0.474929 4.816779 3.254104 1.818509 4.693594 0.000000 0.000000 0.000000 1.436680 -1.041283 9.697939 0.000000 0.000000 0.000000 19.097176 -5.194169 -0.329871 -23.654813 2.481094 -0.340889 0.156900 -16.997803 -59.155082 0.000000 0.000000 0.000000 -27.406124 11.934353 -3.823146 25.346485 -3.273114 11.191022 -7.924527 13.152211 -57.268618 
0.016564 0.965228 -0.010962 -7.720463 -6.382985 2.997150 0.000000 0.000000 0.000000 4.448610 -0.408889 -0.386368 3.536280 -0.281465 -0.297976 -4.489709 -3.141473 6.107659 0.000000 0.000000 0.000000 4.692842 0.068163 -1.691046 -0.959675 0.093960 -0.710719 6.036527 -0.769231 13.086210 0.000000 0.000000 0.000000 2.514945 -0.701026 1.322779 -1.194135 0.480880 5.053449 3.156738 1.353618 4.659119 0.000000 0.000000 0.000000 1.743215 -1.205348 9.852220 0.000000 0.000000 0.000000 18.823990 -5.463889 -0.657747 -24.382289 2.879540 0.633065 -0.244753 -17.699998 -59.488553 0.000000 0.000000 0.000000 -27.537478 11.684206 -3.439314 24.270505 -2.989715 10.622939 -8.131714 12.618268 -56.826950 
0.010868 0.965268 -0.012672 -7.858825 -6.921054 2.998961 0.000000 0.000000 0.000000 4.826363 -0.401485 -0.243880 3.647938 -0.292387 -0.293167 -4.349882 -2.705156 6.166068 0.000000 0.000000 0.000000 5.050576 0.101231 -1.924777 -0.818313 0.091659 -0.442895 6.238773 -0.351056 13.065501 0.000000 0.000000 0.000000 2.796749 -0.779176 1.446435 -1.188640 0.492526 5.262432 3.016436 0.885679 4.563747 0.000000 0.000000 0.000000 1.943989 -1.296242 9.906859 0.000000 0.000000 0.000000 18.531913 -5.776709 -1.021642 -25.013123 3.255557 1.526802 -0.536358 -18.080631 -59.482283 0.000000 0.000000 0.000000 -27.597771 11.597766 -3.197085 23.466929 -2.618950 9.723151 -8.280621 11.912990 -55.775050 
0.004788 0.965324 -0.014954 -7.965166 -7.446030 3.097247 0.000000 0.000000 0.000000 5.190621 -0.420671 -0.236648 3.774590 -0.304321 -0.294127 -4.227491 -2.238546 6.276530 0.000000 0.000000 0.000000 5.366638 0.171972 -2.321530 -0.609442 0.081930 -0.133346 6.427403 0.015078 13.062547 0.000000 0.000000 0.000000 3.062081 -0.856531 1.590824 -1.141043 0.492839 5.428198 2.901496 0.474996 4.480065 0.000000 0.000000 0.000000 1.964590 -1.272905 9.853991 0.000000 0.000000 0.000000 18.310680 -6.106640 -1.378047 -25.622652 3.558151 2.163259 -0.898536 -18.339824 -58.996804 0.000000 0.000000 0.000000 -27.513622 11.541577 -3.009866 22.887189 -2.238893 8.720130 -8.560153 10.954273 -54.507951 
-0.001524 0.965598 -0.017808 -8.015600 -7.828267 3.213108 0.000000 0.000000 0.000000 5.525843 -0.461029 -0.344800 3.907543 -0.317809 -0.270261 -4.174143 -1.853576 6.451056 0.000000 0.000000 0.000000 5.643108 0.262602 -2.791145 -0.358294 0.067571 0.210099 6.552281 0.237063 13.071835 0.000000 0.000000 0.000000 3.229960 -0.918569 1.799588 -1.009246 0.475442 5.594634 2.882689 0.130235 4.415968 0.000000 0.000000 0.000000 1.850756 -1.172281 9.779304 0.000000 0.000000 0.000000 18.185208 -6.620152 -1.836390 -26.271627 3.771339 2.490569 -1.222837 -18.366317 -58.140508 0.000000 0.000000 0.000000 -27.373734 11.520587 -2.893668 22.404918 -1.911976 7.829919 -9.019993 9.737240 -53.118748 
-0.007827 0.965932 -0.021130 -8.039859 -8.044188 3.291323 0.000000 0.000000 0.000000 5.846784 -0.507650 -0.489451 4.060746 -0.331952 -0.253532 -4.172917 -1.603249 6.623359 0.000000 0.000000 0.000000 5.935586 0.360182 -3.277817 -0.133721 0.060994 0.623950 6.585558 0.346906 13.017131 0.000000 0.000000 0.000000 3.438218 -1.006771 2.153308 -0.867830 0.455750 5.761843 2.862480 -0.185270 4.305265 0.000000 0.000000 0.000000 1.753676 -1.089081 9.667254 0.000000 0.000000 0.000000 18.034903 -7.239087 -2.353532 -26.774917 3.941112 2.747887 -1.411287 -18.240960 -57.334776 0.000000 0.000000 0.000000 -27.272135 11.531266 -2.831503 21.931609 -1.626494 7.042568 -9.416327 8.607969 -51.610201 
-0.014037 0.966304 -0.024536 -8.020096 -8.147324 3.251072 0.000000 0.000000 0.000000 6.140692 -0.530054 -0.520782 4.193065 -0.340510 -0.293195 -4.243774 -1.491752 6.825964 0.000000 0.000000 0.000000 6.209241 0.408367 -3.524012 0.059119 0.046903 0.864165 6.589887 0.417866 12.954965 0.000000 0.000000 0.000000 3.698527 -1.114081 2.559796 -0.700823 0.434008 5.994704 2.816355 -0.407821 4.188583 0.000000 0.000000 0.000000 1.648565 -1.011430 9.710816 0.000000 0.000000 0.000000 17.894328 -7.762845 -2.777315 -26.991141 3.960216 2.691759 -1.977965 -18.447174 -56.229171 0.000000 0.000000 0.000000 -27.172463 11.534238 -2.797013 21.353873 -1.368425 6.326596 -9.764798 7.588862 -50.098987 
-0.020109 0.966854 -0.028239 -7.866019 -8.234949 3.229920 0.000000 0.000000 0.000000 6.295666 -0.562340 -0.649379 4.296392 -0.350744 -0.267090 -4.321018 -1.400663 7.027326 0.000000 0.000000 0.000000 6.374873 0.448709 -3.720044 0.185195 0.032308 0.941925 6.609501 0.454735 12.950251 0.000000 0.000000 0.000000 3.952591 -1.214904 2.908850 -0.597363 0.420545 6.142953 2.731226 -0.542992 4.117646 0.000000 0.000000 0.000000 1.518803 -0.923676 9.893810 0.000000 0.000000 0.000000 17.843887 -8.222330 -3.136773 -27.067250 3.876235 2.396896 -2.853106 -18.879825 -54.843040 0.000000 0.000000 0.000000 -27.113733 11.581950 -2.814673 20.890072 -1.124183 5.614786 -10.183158 6.484231 -48.463659 
-0.026103 0.967312 -0.032093 -7.650983 -8.324730 3.260739 0.000000 0.000000 0.000000 6.419820 -0.615320 -0.898605 4.344785 -0.361716 -0.159180 -4.378883 -1.315042 7.192624 0.000000 0.000000 0.000000 6.461992 0.505652 -3.981830 0.321090 0.014361 0.992434 6.639840 0.487804 12.968289 0.000000 0.000000 0.000000 4.226397 -1.318338 3.223880 -0.523112 0.410931 6.251818 2.670902 -0.624066 3.996657 0.000000 0.000000 0.000000 1.321203 -0.793922 10.072324 0.000000 0.000000 0.000000 17.789780 -8.783457 -3.566565 -27.151400 3.774957 2.056191 -3.681149 -19.167649 -53.307151 0.000000 0.000000 0.000000 -27.102216 11.813577 -2.999583 20.377961 -0.903557 4.964514 -10.618330 5.318496 -46.543213 
-0.031982 0.967577 -0.035932 -7.431613 -8.389795 3.276087 0.000000 0.000000 0.000000 6.531270 -0.663430 -1.127994 4.412524 -0.372606 -0.077657 -4.451482 -1.275044 7.352771 0.000000 0.000000 0.000000 6.535812 0.576304 -4.299171 0.464881 0.002815 1.167847 6.637880 0.482735 12.958054 0.000000 0.000000 0.000000 4.494038 -1.422974 3.551452 -0.393683 0.390411 6.381282 2.679964 -0.699944 3.864514 0.000000 0.000000 0.000000 1.077014 -0.634123 10.112527 0.000000 0.000000 0.000000 17.635884 -9.463940 -4.085889 -27.303896 3.622842 1.534587 -4.457151 -19.163805 -51.376487 0.000000 0.000000 0.000000 -27.050999 12.163585 -3.301165 19.530784 -0.657456 4.223716 -10.990446 4.128194 -44.107740 
-0.037636 0.967694 -0.039944 -7.216864 -8.420768 3.296640 0.000000 0.000000 0.000000 6.633213 -0.728481 -1.452871 4.488667 -0.390613 0.105871 -4.535363 -1.224689 7.537387 0.000000 0.000000 0.000000 6.590430 0.671440 -4.719289 0.647657 -0.006970 1.480532 6.579227 0.395048 12.908554 0.000000 0.000000 0.000000 4.804332 -1.547161 3.937729 -0.273456 0.368666 6.457749 2.689275 -0.826863 3.714313 0.000000 0.000000 0.000000 0.884688 -0.505978 9.988603 0.000000 0.000000 0.000000 17.420522 -10.330073 -4.744124 -27.497865 3.413604 0.826379 -5.028259 -18.686031 -48.966715 0.000000 0.000000 0.000000 -26.988065 12.626397 -3.702737 18.453787 -0.349231 3.234588 -11.082470 3.146582 -41.080663 
-0.043330 0.967837 -0.044302 -7.039651 -8.463845 3.320988 0.000000 0.000000 0.000000 6.794600 -0.810551 -1.860606 4.531644 -0.413262 0.404143 -4.599277 -1.121529 7.722131 0.000000 0.000000 0.000000 6.640112 0.778211 -5.186120 0.926647 -0.031388 1.823161 6.519588 0.285557 12.873182 0.000000 0.000000 0.000000 5.091182 -1.683658 4.459717 -0.145242 0.343264 6.501080 2.721333 -0.939905 3.534187 0.000000 0.000000 0.000000 0.701250 -0.384871 9.779297 0.000000 0.000000 0.000000 17.276864 -11.380648 -5.533430 -27.614672 3.076274 -0.218924 -5.388056 -17.729457 -46.021218 0.000000 0.000000 0.000000 -26.965195 13.257795 -4.254771 17.470270 -0.049610 2.209594 -11.137467 2.272429 -38.064306 
-0.049058 0.967934 -0.048911 -6.893748 -8.586762 3.437784 0.000000 0.000000 0.000000 7.019062 -0.896228 -2.281530 4.535783 -0.425190 0.579005 -4.677576 -0.954889 7.982586 0.000000 0.000000 0.000000 6.682184 0.916236 -5.790062 1.272146 -0.067030 2.181305 6.497794 0.205379 12.876458 0.000000 0.000000 0.000000 5.324141 -1.808300 4.981879 -0.026428 0.322682 6.595746 2.737789 -1.056376 3.312234 0.000000 0.000000 0.000000 0.496568 -0.249652 9.478292 0.000000 0.000000 0.000000 17.187887 -12.513559 -6.390288 -27.791357 2.678403 -1.454504 -5.275125 -16.255407 -42.918324 0.000000 0.000000 0.000000 -26.936097 13.989190 -4.889048 16.708114 0.274211 1.051119 -11.443701 1.173529 -34.939685 
-0.054570 0.968102 -0.053652 -6.803931 -8.788484 3.645393 0.000000 0.000000 0.000000 7.275825 -0.993999 -2.776094 4.550501 -0.440226 0.783180 -4.700913 -0.711467 8.206280 0.000000 0.000000 0.000000 6.737916 1.089451 -6.544488 1.661013 -0.106860 2.621147 6.506511 0.163416 12.897416 0.000000 0.000000 0.000000 5.557403 -1.938924 5.537095 0.031032 0.310098 6.587224 2.757827 -1.210704 3.170979 0.000000 0.000000 0.000000 0.322618 -0.132142 9.129239 0.000000 0.000000 0.000000 17.072400 -13.602585 -7.225235 -28.141804 2.286442 -2.735371 -4.552042 -14.318935 -39.919555 0.000000 0.000000 0.000000 -27.009256 14.706923 -5.485854 16.130722 0.654017 -0.359637 -11.752333 0.178477 -31.934298 
-0.059762 0.967994 -0.058673 -6.794842 -9.052080 3.905217 0.000000 0.000000 0.000000 7.579953 -1.108492 -3.377137 4.599638 -0.467833 1.134254 -4.652077 -0.405563 8.351612 0.000000 0.000000 0.000000 6.828113 1.308909 -7.487896 2.096438 -0.145150 3.282946 6.516447 0.109996 12.922199 0.000000 0.000000 0.000000 5.778633 -2.095574 6.315818 0.070798 0.299357 6.539344 2.820564 -1.347405 2.981675 0.000000 0.000000 0.000000 0.193070 -0.045708 8.600163 0.000000 0.000000 0.000000 16.962266 -14.569338 -7.972647 -28.604598 1.903680 -3.991199 -3.387291 -12.302367 -37.483231 0.000000 0.000000 0.000000 -27.204615 15.429327 -6.075705 15.703480 1.022102 -1.755487 -12.170554 -0.729869 -29.569289 
-0.064735 0.967675 -0.063537 -6.807519 -9.434498 4.144737 0.000000 0.000000 0.000000 7.912168 -1.190899 -3.820062 4.622672 -0.484773 1.346616 -4.616696 -0.058324 8.561484 0.000000 0.000000 0.000000 6.920789 1.531847 -8.431002 2.528407 -0.182805 4.000755 6.568478 0.126613 12.957261 0.000000 0.000000 0.000000 5.985647 -2.250057 7.115163 0.048749 0.308203 6.604223 2.839275 -1.517684 2.778554 0.000000 0.000000 0.000000 0.125338 0.004942 8.149490 0.000000 0.000000 0.000000 16.972493 -15.384661 -8.623651 -28.935267 1.552020 -5.102195 -2.017117 -10.416712 -35.594440 0.000000 0.000000 0.000000 -27.483312 16.171674 -6.664847 15.330182 1.436883 -3.353689 -12.314535 -1.336169 -27.252351 
-0.069341 0.967302 -0.067880 -6.818630 -9.888290 4.370284 0.000000 0.000000 0.000000 8.190832 -1.227188 -4.020043 4.681203 -0.484843 1.230685 -4.601186 0.346919 8.858215 0.000000 0.000000 0.000000 7.019858 1.750590 -9.340200 2.898482 -0.210803 4.739612 6.636596 0.228622 12.946855 0.000000 0.000000 0.000000 6.243243 -2.407470 7.827254 -0.074643 0.335677 6.603887 2.794640 -1.660944 2.606115 0.000000 0.000000 0.000000 0.092121 0.037720 7.971266 0.000000 0.000000 0.000000 17.096736 -15.982086 -9.122829 -29.064176 1.215573 -6.111162 -0.699211 -8.700147 -33.819175 0.000000 0.000000 0.000000 -27.860891 17.005386 -7.338042 14.955992 1.857780 -5.018420 -11.963081 -1.583422 -24.639726 
